<?xml version="1.0" encoding="utf-8" ?>
<svg xmlns="http://www.w3.org/2000/svg" xmlns:xlink="http://www.w3.org/1999/xlink" width="250" height="250">
	<circle cx="125" cy="125" r="125" fill="black"/>
	<path fill="#FEFEFE" transform="matrix(0.277778 0 0 0.277778 1.52588e-05 3.05176e-05)" d="M363.01 404.285C371.401 403.969 379.872 404.183 388.271 404.176C394.467 404.171 400.974 403.773 407.13 404.406L407.523 404.91C408.734 410.849 408.877 462.207 407.707 468.519C405.905 469.25 368.225 469.463 364.195 468.743C361.886 464.934 363 412.926 363.01 404.285Z"/>
	<path fill="#FEFEFE" transform="matrix(0.277778 0 0 0.277778 1.52588e-05 3.05176e-05)" d="M563.255 580.567C567.073 580.367 570.943 580.454 574.768 580.431C581.956 580.389 589.247 580.175 596.396 581.027C612.899 582.992 628.117 591.15 639.803 602.781C652.681 615.599 661.88 633.772 665.727 651.495C669.269 667.813 667.726 688.854 667.726 705.844L667.726 786.637C666.575 787.578 628.683 787.145 623.661 787.149L623.647 698.982C623.655 687.057 623.921 675.072 623.642 663.152C622.938 633.117 598.811 610.298 577.443 592.041C572.963 588.213 567.858 584.995 563.611 580.917C563.491 580.802 563.374 580.683 563.255 580.567Z"/>
	<path fill="#FEFEFE" transform="matrix(0.277778 0 0 0.277778 1.52588e-05 3.05176e-05)" d="M301.543 499.359C316.166 499.437 330.83 499.106 345.445 499.566L345.434 709.201L345.448 764.35C345.451 771.02 346.267 782.437 345.233 788.622L301.507 788.599L301.543 499.359Z"/>
	<path fill="#FEFEFE" transform="matrix(0.277778 0 0 0.277778 1.52588e-05 3.05176e-05)" d="M432.52 579.692C447.949 579.191 463.518 579.583 478.962 579.59C514.128 579.604 550.806 587.239 576.459 612.967C594.457 631.018 605.136 658.467 606.081 683.857C606.441 693.551 605.268 703.195 605.253 712.893C605.23 728.121 605.501 743.39 605.204 758.613C605.115 763.153 604.558 767.662 604.351 772.194C604.126 777.136 604.217 782.133 604.215 787.08L604.096 787.565C602.641 788.51 567.549 788.041 562.343 788.064C561.676 762.722 562.232 737.204 562.263 711.844C562.278 699.603 563.591 683.338 560.83 671.612Q560.338 669.603 559.712 667.633Q559.086 665.662 558.328 663.738Q557.57 661.814 556.684 659.946Q555.797 658.077 554.787 656.273Q553.777 654.469 552.647 652.737Q551.518 651.005 550.274 649.353Q549.03 647.701 547.677 646.137Q546.324 644.573 544.869 643.104C532.963 631.036 515.839 623.136 498.941 621.774C491.642 621.186 484.286 621.732 476.972 621.534C462.043 621.13 447.212 620.863 432.272 620.825C432.227 607.226 431.551 593.252 432.52 579.692Z"/>
	<path fill="#FEFEFE" transform="matrix(0.277778 0 0 0.277778 1.52588e-05 3.05176e-05)" d="M362.999 498.743C377.954 498.1 393.178 498.691 408.158 498.726L408.186 694.056L408.206 755.238C408.208 765.84 409.11 777.26 407.728 787.731C403.379 788.711 397.718 788.06 393.213 788.053Q378.294 788.075 363.376 787.891C362.11 779.164 362.988 768.677 362.991 759.794L363.007 702.21L362.999 498.743Z"/>
	<path fill="#FEFEFE" transform="matrix(0.277778 0 0 0.277778 1.52588e-05 3.05176e-05)" d="M432.874 368.189Q433.905 368.153 434.936 368.135C455.54 367.851 476.186 368.106 496.794 368.105L523.796 368.11C531.159 368.113 538.614 367.882 545.942 368.678Q547.531 368.85 549.111 369.087Q550.692 369.324 552.261 369.626Q553.831 369.929 555.386 370.295Q556.942 370.662 558.481 371.092Q560.02 371.522 561.54 372.016Q563.06 372.509 564.559 373.064Q566.057 373.62 567.532 374.237Q569.006 374.854 570.453 375.531Q571.901 376.208 573.32 376.944Q574.738 377.68 576.125 378.474Q577.512 379.268 578.865 380.118Q580.219 380.969 581.535 381.874Q582.852 382.779 584.131 383.738Q585.409 384.697 586.647 385.708Q587.885 386.719 589.08 387.78Q590.276 388.841 591.426 389.95C604.969 403.269 613.965 421.073 614.034 440.324C614.093 457.059 607.629 474.027 595.672 485.908C580.897 500.588 559.629 506.856 539.288 508.172C531.622 508.668 523.778 508.36 516.096 508.358L481.311 508.338L432.967 508.293C432.588 494.851 432.883 481.331 432.887 467.881C457.567 467.387 482.347 467.884 507.04 467.899C516.93 467.905 530.3 468.857 539.631 467.341C546.238 466.268 552.973 464.018 558.01 459.44C562.633 455.237 565.429 448.723 565.473 442.476C565.522 435.431 562.25 424.104 557.248 419.246C553.461 415.568 548.32 413.273 543.161 412.339C528.94 409.766 515.413 411.757 501.199 411.888L432.905 411.963L432.874 368.189Z"/>
	<path fill="#FEFEFE" transform="matrix(0.277778 0 0 0.277778 1.52588e-05 3.05176e-05)" d="M305.522 114.414C313.77 119.789 326.092 138.625 331.134 147.897C357.625 196.615 330.634 245.946 302.338 286.418C288.299 306.498 273.025 325.647 258.587 345.437C241.629 368.681 224.108 394.378 215.929 422.209C214.781 426.973 213.742 431.782 212.098 436.405C185.884 381.788 184.497 338.376 216.563 285.769C225.875 270.492 236.694 256.21 247.299 241.822C260.473 223.949 273.923 206.247 284.118 186.431C292.203 170.716 298.665 154.529 301.919 137.094C303.275 129.829 303.563 122.27 305.346 115.104L305.522 114.414Z"/>
	<path fill="#FEFEFE" transform="matrix(0.277778 0 0 0.277778 1.52588e-05 3.05176e-05)" d="M433.839 316.88L510.398 316.857L542.787 316.857C549.978 316.861 557.242 316.618 564.404 317.313Q566.875 317.565 569.333 317.921Q571.791 318.278 574.232 318.738Q576.673 319.199 579.092 319.763Q581.511 320.327 583.903 320.994Q586.296 321.66 588.658 322.428Q591.021 323.195 593.348 324.062Q595.676 324.93 597.964 325.895Q600.253 326.861 602.498 327.922Q604.743 328.984 606.942 330.141Q609.14 331.297 611.287 332.546Q613.434 333.795 615.526 335.134Q617.618 336.473 619.651 337.899Q621.685 339.326 623.655 340.838Q625.626 342.35 627.531 343.944Q629.435 345.538 631.271 347.212Q633.106 348.886 634.868 350.636C652.58 368.264 665.84 392.827 669.439 417.726C670.388 424.292 670.386 430.911 670.386 437.53C670.385 469.234 661.47 500.318 638.547 523.213C616.426 545.307 586.44 556.632 555.518 558.877C545.425 559.61 534.902 559.034 524.767 559.034L473.95 559.012Q453.212 559.087 432.475 558.936C431.559 545.501 431.743 531.08 432.955 517.673L496.591 517.701C533.942 517.734 577.9 521.49 606.91 492.899C621.134 478.88 628.298 459.905 628.335 440.026C628.373 419.649 622.152 398.474 607.564 383.799C590.488 366.621 563.974 358.221 540.188 356.548C534.798 356.169 529.266 356.397 523.86 356.408L496.467 356.424L433.795 356.373L433.839 316.88Z"/>
	<path fill="#FEFEFE" transform="matrix(0.277778 0 0 0.277778 1.52588e-05 3.05176e-05)" d="M355.102 193.072C355.226 193.149 355.357 193.215 355.475 193.302C358.401 195.454 361.287 200.344 363.496 203.371C377.482 222.535 388.068 243.348 392.979 266.699C394.793 275.322 395.303 284.206 395.272 292.994C395.1 340.628 370.494 380.305 345.48 418.937C344.989 435.907 345.442 453.014 345.447 469.998C334.31 470.377 319.229 470.726 308.259 469.918C301.886 477.746 296.071 486.274 290.117 494.438C266.028 527.461 244.11 561.409 231.35 600.527C229.867 606.102 228.65 611.769 226.417 617.103C221.917 603.979 216.907 590.913 213.583 577.426C192.15 490.456 223.145 436.04 273.117 368.096C290.867 343.962 309.64 319.731 323.706 293.189C335.224 271.456 345.493 248.182 350.272 223.916C351.418 218.095 352.384 212.152 353.143 206.27C353.701 201.95 353.75 197.224 355.102 193.072Z"/>
</svg>
